<svg xmlns="http://www.w3.org/2000/svg" xmlns:xlink="http://www.w3.org/1999/xlink" width="512" zoomAndPan="magnify" viewBox="0 0 384 382.499989" height="510" preserveAspectRatio="xMidYMid meet" version="1.0"><defs><clipPath id="909f8695a8"><path d="M 1 16 L 383 16 L 383 360.707031 L 1 360.707031 Z M 1 16 " clip-rule="nonzero"/></clipPath><clipPath id="e7b7b2fc63"><path d="M 229.015625 37.753906 L 376.542969 295.929688 C 384.203125 309.328125 384.148438 325.792969 376.398438 339.144531 C 368.652344 352.492188 354.386719 360.707031 338.953125 360.707031 L 45.046875 360.707031 C 29.613281 360.707031 15.347656 352.492188 7.601562 339.144531 C -0.148438 325.792969 -0.203125 309.328125 7.457031 295.929688 L 154.984375 37.753906 C 162.574219 24.472656 176.699219 16.273438 192 16.273438 C 207.300781 16.273438 221.425781 24.472656 229.015625 37.753906 Z M 229.015625 37.753906 " clip-rule="nonzero"/></clipPath></defs><g clip-path="url(#909f8695a8)"><g clip-path="url(#e7b7b2fc63)"><path fill="#262626" d="M -29.5625 -27.023438 L 413.5625 -27.023438 L 413.5625 360.707031 L -29.5625 360.707031 Z M -29.5625 -27.023438 " fill-opacity="1" fill-rule="nonzero"/></g></g></svg>