<svg xmlns="http://www.w3.org/2000/svg" xmlns:xlink="http://www.w3.org/1999/xlink" width="512" zoomAndPan="magnify" viewBox="0 0 384 383.999986" height="512" preserveAspectRatio="xMidYMid meet" version="1.0"><defs><clipPath id="856c1bf2a7"><path d="M 158.066406 167.546875 L 225.933594 167.546875 L 225.933594 229.257812 L 158.066406 229.257812 Z M 158.066406 167.546875 " clip-rule="nonzero"/></clipPath><clipPath id="5c00137640"><path d="M 203.164062 174.277344 L 223.417969 209.722656 C 225.730469 213.765625 225.710938 218.730469 223.375 222.757812 C 221.039062 226.78125 216.738281 229.257812 212.082031 229.257812 L 171.917969 229.257812 C 167.261719 229.257812 162.960938 226.78125 160.625 222.757812 C 158.289062 218.730469 158.269531 213.765625 160.582031 209.722656 L 180.835938 174.277344 C 183.125 170.269531 187.386719 167.796875 192 167.796875 C 196.613281 167.796875 200.875 170.269531 203.164062 174.277344 Z M 203.164062 174.277344 " clip-rule="nonzero"/></clipPath></defs><g clip-path="url(#856c1bf2a7)"><g clip-path="url(#5c00137640)"><path fill="#262626" d="M 149.417969 154.742188 L 234.582031 154.742188 L 234.582031 229.257812 L 149.417969 229.257812 Z M 149.417969 154.742188 " fill-opacity="1" fill-rule="nonzero"/></g></g></svg>