<svg xmlns="http://www.w3.org/2000/svg" xmlns:xlink="http://www.w3.org/1999/xlink" width="1704" zoomAndPan="magnify" viewBox="0 0 1278 604.499982" height="806" preserveAspectRatio="xMidYMid meet" version="1.0"><defs><g/><clipPath id="4d4d5cfc8b"><path d="M 0.527344 0 L 1277.472656 0 L 1277.472656 603.5625 L 0.527344 603.5625 Z M 0.527344 0 " clip-rule="nonzero"/></clipPath><clipPath id="ecd61ee374"><path d="M 121.925781 0 L 1156.070312 0 C 1188.269531 0 1219.148438 12.789062 1241.914062 35.558594 C 1264.679688 58.324219 1277.472656 89.203125 1277.472656 121.398438 L 1277.472656 482.164062 C 1277.472656 514.359375 1264.679688 545.238281 1241.914062 568.007812 C 1219.148438 590.773438 1188.269531 603.5625 1156.070312 603.5625 L 121.925781 603.5625 C 89.730469 603.5625 58.851562 590.773438 36.085938 568.007812 C 13.320312 545.238281 0.527344 514.359375 0.527344 482.164062 L 0.527344 121.398438 C 0.527344 89.203125 13.320312 58.324219 36.085938 35.558594 C 58.851562 12.789062 89.730469 0 121.925781 0 Z M 121.925781 0 " clip-rule="nonzero"/></clipPath><clipPath id="c4f3c45267"><path d="M 245.746094 0 L 1040.1875 0 L 1040.1875 603.5625 L 245.746094 603.5625 Z M 245.746094 0 " clip-rule="nonzero"/></clipPath></defs><g clip-path="url(#4d4d5cfc8b)"><g clip-path="url(#ecd61ee374)"><path fill="#ffeed9" d="M 0.527344 0 L 1277.472656 0 L 1277.472656 603.5625 L 0.527344 603.5625 Z M 0.527344 0 " fill-opacity="1" fill-rule="nonzero"/></g></g><g clip-path="url(#c4f3c45267)"><path fill="#262626" d="M 245.746094 0 L 1040.1875 0 L 1040.1875 603.5625 L 245.746094 603.5625 Z M 245.746094 0 " fill-opacity="1" fill-rule="nonzero"/></g><g fill="#262626" fill-opacity="1"><g transform="translate(75.855647, 121.325496)"><g><path d="M 21.5625 -2.078125 C 22.425781 -2.078125 22.859375 -3.082031 22.859375 -5.09375 L 24.46875 -5.09375 C 24.59375 -4.6875 24.65625 -4.332031 24.65625 -4.03125 C 24.65625 -3.738281 24.648438 -3.414062 24.640625 -3.0625 C 24.628906 -2.707031 24.492188 -2.242188 24.234375 -1.671875 C 23.617188 -0.335938 22.46875 0.328125 20.78125 0.328125 C 19.09375 0.328125 17.90625 -0.09375 17.21875 -0.9375 C 16.53125 -1.789062 16.039062 -2.65625 15.75 -3.53125 C 15.457031 -4.40625 15.222656 -5.171875 15.046875 -5.828125 C 14.535156 -7.628906 14.125 -8.804688 13.8125 -9.359375 C 13.238281 -10.398438 12.460938 -10.921875 11.484375 -10.921875 L 7.796875 -10.921875 L 7.796875 -4.515625 C 7.796875 -3.941406 7.820312 -3.476562 7.875 -3.125 C 7.9375 -2.78125 8.132812 -2.476562 8.46875 -2.21875 C 8.8125 -1.96875 9.851562 -1.84375 11.59375 -1.84375 L 11.59375 0 L 1.21875 0 L 1.21875 -1.84375 C 2.394531 -1.84375 3.128906 -1.945312 3.421875 -2.15625 C 3.710938 -2.363281 3.882812 -2.582031 3.9375 -2.8125 C 3.988281 -3.050781 4.015625 -3.335938 4.015625 -3.671875 L 4.015625 -21.46875 C 4.015625 -22.195312 3.894531 -22.648438 3.65625 -22.828125 C 3.207031 -23.140625 2.390625 -23.296875 1.203125 -23.296875 L 1.203125 -25.140625 L 11.5 -25.140625 C 17 -25.140625 20.054688 -23.441406 20.671875 -20.046875 C 20.765625 -19.484375 20.8125 -18.832031 20.8125 -18.09375 C 20.8125 -16.476562 20.304688 -15.101562 19.296875 -13.96875 C 18.285156 -12.832031 16.910156 -12.015625 15.171875 -11.515625 C 16.679688 -11.054688 17.800781 -9.847656 18.53125 -7.890625 C 18.78125 -7.253906 19.050781 -6.429688 19.34375 -5.421875 C 19.632812 -4.421875 19.867188 -3.734375 20.046875 -3.359375 C 20.441406 -2.503906 20.945312 -2.078125 21.5625 -2.078125 Z M 11.53125 -12.609375 C 13.4375 -12.609375 14.785156 -13.066406 15.578125 -13.984375 C 16.378906 -14.910156 16.78125 -16.238281 16.78125 -17.96875 C 16.78125 -19.707031 16.316406 -21.03125 15.390625 -21.9375 C 14.460938 -22.84375 12.835938 -23.296875 10.515625 -23.296875 L 7.796875 -23.296875 L 7.796875 -12.609375 Z M 11.53125 -12.609375 "/></g></g></g><g fill="#262626" fill-opacity="1"><g transform="translate(100.572898, 121.325496)"><g><path d="M 1.515625 -8.578125 C 1.515625 -9.921875 1.722656 -11.160156 2.140625 -12.296875 C 2.554688 -13.429688 3.140625 -14.375 3.890625 -15.125 C 5.359375 -16.59375 7.316406 -17.328125 9.765625 -17.328125 C 12.234375 -17.328125 14.222656 -16.585938 15.734375 -15.109375 C 17.253906 -13.628906 18.015625 -11.53125 18.015625 -8.8125 C 18.015625 -6.09375 17.316406 -3.890625 15.921875 -2.203125 C 14.523438 -0.515625 12.472656 0.328125 9.765625 0.328125 C 7.066406 0.328125 5.015625 -0.488281 3.609375 -2.125 C 2.210938 -3.757812 1.515625 -5.910156 1.515625 -8.578125 Z M 9.765625 -1.671875 C 11.066406 -1.671875 12.117188 -2.265625 12.921875 -3.453125 C 13.734375 -4.640625 14.140625 -6.304688 14.140625 -8.453125 C 14.140625 -11.898438 13.269531 -14.054688 11.53125 -14.921875 C 11 -15.179688 10.410156 -15.3125 9.765625 -15.3125 C 7.703125 -15.3125 6.359375 -14.0625 5.734375 -11.5625 C 5.503906 -10.707031 5.390625 -9.703125 5.390625 -8.546875 C 5.390625 -6.335938 5.796875 -4.640625 6.609375 -3.453125 C 7.421875 -2.265625 8.472656 -1.671875 9.765625 -1.671875 Z M 9.765625 -1.671875 "/></g></g></g><g fill="#262626" fill-opacity="1"><g transform="translate(120.095339, 121.325496)"><g><path d="M 1.5625 -13.359375 C 1.226562 -14.085938 0.925781 -14.566406 0.65625 -14.796875 C 0.394531 -15.035156 -0.15625 -15.15625 -1 -15.15625 L -1 -17 L 7.96875 -17 L 7.96875 -15.15625 C 6.71875 -15.15625 5.953125 -15.023438 5.671875 -14.765625 C 5.398438 -14.515625 5.40625 -14.046875 5.6875 -13.359375 L 9.46875 -4.171875 L 13.515625 -13.359375 C 13.785156 -13.992188 13.726562 -14.453125 13.34375 -14.734375 C 12.957031 -15.015625 12.113281 -15.15625 10.8125 -15.15625 L 10.8125 -17 L 18.453125 -17 L 18.453125 -15.15625 C 17.753906 -15.15625 17.21875 -15.007812 16.84375 -14.71875 C 16.476562 -14.4375 16.15625 -13.984375 15.875 -13.359375 L 9.71875 0 L 7.890625 0 Z M 1.5625 -13.359375 "/></g></g></g><g fill="#262626" fill-opacity="1"><g transform="translate(137.891756, 121.325496)"><g><path d="M 17.140625 -7.734375 L 5.515625 -7.734375 C 5.515625 -5.804688 5.96875 -4.316406 6.875 -3.265625 C 7.789062 -2.210938 8.921875 -1.6875 10.265625 -1.6875 C 12.054688 -1.6875 13.34375 -2.429688 14.125 -3.921875 L 16.625 -3.9375 C 16.363281 -2.738281 15.628906 -1.726562 14.421875 -0.90625 C 13.210938 -0.0820312 11.578125 0.328125 9.515625 0.328125 C 7.460938 0.328125 5.6875 -0.304688 4.1875 -1.578125 C 2.40625 -3.109375 1.515625 -5.265625 1.515625 -8.046875 C 1.515625 -10.828125 2.222656 -13.066406 3.640625 -14.765625 C 5.066406 -16.472656 7.109375 -17.328125 9.765625 -17.328125 C 13.265625 -17.328125 15.53125 -15.921875 16.5625 -13.109375 C 16.976562 -11.984375 17.1875 -10.914062 17.1875 -9.90625 C 17.1875 -8.894531 17.171875 -8.171875 17.140625 -7.734375 Z M 13.28125 -10.234375 C 13.28125 -13.660156 12.113281 -15.375 9.78125 -15.375 C 8.476562 -15.375 7.457031 -14.863281 6.71875 -13.84375 C 5.988281 -12.820312 5.59375 -11.414062 5.53125 -9.625 L 13.265625 -9.625 C 13.273438 -9.832031 13.28125 -10.035156 13.28125 -10.234375 Z M 13.28125 -10.234375 "/></g></g></g><g fill="#262626" fill-opacity="1"><g transform="translate(156.593075, 121.325496)"><g><path d="M 1.375 -1.84375 C 2.332031 -1.84375 2.929688 -1.941406 3.171875 -2.140625 C 3.421875 -2.335938 3.570312 -2.546875 3.625 -2.765625 C 3.675781 -2.984375 3.703125 -3.265625 3.703125 -3.609375 L 3.703125 -12.84375 C 3.703125 -13.644531 3.628906 -14.164062 3.484375 -14.40625 C 3.347656 -14.65625 2.972656 -14.78125 2.359375 -14.78125 L 1.34375 -14.78125 L 1.34375 -16.625 C 2.40625 -16.625 3.226562 -16.703125 3.8125 -16.859375 C 4.394531 -17.023438 4.8125 -17.144531 5.0625 -17.21875 C 5.320312 -17.289062 5.597656 -17.328125 5.890625 -17.328125 C 6.453125 -17.328125 6.832031 -17.160156 7.03125 -16.828125 C 7.226562 -16.492188 7.328125 -15.945312 7.328125 -15.1875 L 7.328125 -14.84375 C 8.285156 -15.976562 9.375 -16.738281 10.59375 -17.125 C 11.03125 -17.257812 11.46875 -17.328125 11.90625 -17.328125 C 12.738281 -17.328125 13.382812 -17.085938 13.84375 -16.609375 C 14.3125 -16.128906 14.546875 -15.535156 14.546875 -14.828125 C 14.546875 -14.128906 14.320312 -13.554688 13.875 -13.109375 C 13.425781 -12.660156 12.882812 -12.4375 12.25 -12.4375 C 11.625 -12.4375 11.109375 -12.660156 10.703125 -13.109375 C 10.296875 -13.554688 10.113281 -14.113281 10.15625 -14.78125 C 9.695312 -14.71875 9.207031 -14.507812 8.6875 -14.15625 C 8.164062 -13.800781 7.710938 -13.320312 7.328125 -12.71875 L 7.328125 -3.75 C 7.328125 -3.332031 7.363281 -2.992188 7.4375 -2.734375 C 7.507812 -2.484375 7.703125 -2.269531 8.015625 -2.09375 C 8.335938 -1.925781 9.296875 -1.84375 10.890625 -1.84375 L 10.890625 0 L 1.375 0 Z M 1.375 -1.84375 "/></g></g></g><g fill="#262626" fill-opacity="1"><g transform="translate(60.938299, 158.794502)"><g><path d="M 13.375 -1.84375 C 16.894531 -1.84375 19.117188 -3.460938 20.046875 -6.703125 L 22.453125 -6.703125 C 22.453125 -5.828125 22.21875 -4.96875 21.75 -4.125 C 21.28125 -3.28125 20.625 -2.53125 19.78125 -1.875 C 17.90625 -0.40625 15.488281 0.328125 12.53125 0.328125 C 9.582031 0.328125 7.0625 -0.648438 4.96875 -2.609375 C 2.53125 -4.878906 1.3125 -8.203125 1.3125 -12.578125 C 1.3125 -16.054688 2.25 -18.992188 4.125 -21.390625 C 5.457031 -23.097656 7.226562 -24.285156 9.4375 -24.953125 C 10.570312 -25.304688 11.820312 -25.484375 13.1875 -25.484375 C 15.882812 -25.484375 18.097656 -24.863281 19.828125 -23.625 C 21.554688 -22.394531 22.421875 -20.84375 22.421875 -18.96875 C 22.421875 -17.570312 21.875 -16.632812 20.78125 -16.15625 C 20.457031 -16.007812 20.109375 -15.9375 19.734375 -15.9375 C 18.554688 -15.9375 17.765625 -16.4375 17.359375 -17.4375 C 17.242188 -17.75 17.1875 -18.117188 17.1875 -18.546875 C 17.1875 -18.972656 17.304688 -19.394531 17.546875 -19.8125 C 17.796875 -20.238281 18.117188 -20.5625 18.515625 -20.78125 C 17.617188 -22.507812 16 -23.375 13.65625 -23.375 C 11.320312 -23.375 9.421875 -22.488281 7.953125 -20.71875 C 6.492188 -18.945312 5.765625 -16.285156 5.765625 -12.734375 C 5.765625 -9.191406 6.503906 -6.488281 7.984375 -4.625 C 9.472656 -2.769531 11.269531 -1.84375 13.375 -1.84375 Z M 13.375 -1.84375 "/></g></g></g><g fill="#262626" fill-opacity="1"><g transform="translate(85.92367, 158.794502)"><g><path d="M 1.515625 -8.578125 C 1.515625 -9.921875 1.722656 -11.160156 2.140625 -12.296875 C 2.554688 -13.429688 3.140625 -14.375 3.890625 -15.125 C 5.359375 -16.59375 7.316406 -17.328125 9.765625 -17.328125 C 12.234375 -17.328125 14.222656 -16.585938 15.734375 -15.109375 C 17.253906 -13.628906 18.015625 -11.53125 18.015625 -8.8125 C 18.015625 -6.09375 17.316406 -3.890625 15.921875 -2.203125 C 14.523438 -0.515625 12.472656 0.328125 9.765625 0.328125 C 7.066406 0.328125 5.015625 -0.488281 3.609375 -2.125 C 2.210938 -3.757812 1.515625 -5.910156 1.515625 -8.578125 Z M 9.765625 -1.671875 C 11.066406 -1.671875 12.117188 -2.265625 12.921875 -3.453125 C 13.734375 -4.640625 14.140625 -6.304688 14.140625 -8.453125 C 14.140625 -11.898438 13.269531 -14.054688 11.53125 -14.921875 C 11 -15.179688 10.410156 -15.3125 9.765625 -15.3125 C 7.703125 -15.3125 6.359375 -14.0625 5.734375 -11.5625 C 5.503906 -10.707031 5.390625 -9.703125 5.390625 -8.546875 C 5.390625 -6.335938 5.796875 -4.640625 6.609375 -3.453125 C 7.421875 -2.265625 8.472656 -1.671875 9.765625 -1.671875 Z M 9.765625 -1.671875 "/></g></g></g><g fill="#262626" fill-opacity="1"><g transform="translate(105.44611, 158.794502)"><g><path d="M 11.765625 -14.8125 C 9.929688 -14.8125 8.445312 -14.242188 7.3125 -13.109375 L 7.3125 -3.609375 C 7.3125 -2.910156 7.421875 -2.472656 7.640625 -2.296875 C 8.035156 -1.992188 8.773438 -1.84375 9.859375 -1.84375 L 9.859375 0 L 1.34375 0 L 1.34375 -1.84375 C 2.300781 -1.84375 2.898438 -1.941406 3.140625 -2.140625 C 3.390625 -2.335938 3.539062 -2.546875 3.59375 -2.765625 C 3.65625 -2.984375 3.6875 -3.265625 3.6875 -3.609375 L 3.6875 -12.734375 C 3.6875 -13.546875 3.613281 -14.070312 3.46875 -14.3125 C 3.332031 -14.5625 2.953125 -14.6875 2.328125 -14.6875 L 1.3125 -14.6875 L 1.3125 -16.53125 C 2.363281 -16.53125 3.1875 -16.609375 3.78125 -16.765625 C 4.375 -16.929688 4.796875 -17.050781 5.046875 -17.125 C 5.304688 -17.195312 5.578125 -17.234375 5.859375 -17.234375 C 6.453125 -17.234375 6.84375 -17.0625 7.03125 -16.71875 C 7.21875 -16.375 7.3125 -15.828125 7.3125 -15.078125 C 8.507812 -16.085938 9.894531 -16.769531 11.46875 -17.125 C 11.988281 -17.25 12.5 -17.3125 13 -17.3125 C 16.625 -17.3125 18.4375 -14.914062 18.4375 -10.125 L 18.4375 -3.640625 C 18.4375 -2.898438 18.539062 -2.414062 18.75 -2.1875 C 18.96875 -1.957031 19.550781 -1.84375 20.5 -1.84375 L 20.5 0 L 12.578125 0 L 12.578125 -1.84375 C 13.585938 -1.84375 14.195312 -1.945312 14.40625 -2.15625 C 14.613281 -2.363281 14.734375 -2.578125 14.765625 -2.796875 C 14.796875 -3.023438 14.8125 -3.304688 14.8125 -3.640625 L 14.8125 -9.90625 C 14.8125 -11.457031 14.664062 -12.523438 14.375 -13.109375 C 13.8125 -14.242188 12.941406 -14.8125 11.765625 -14.8125 Z M 11.765625 -14.8125 "/></g></g></g><g fill="#262626" fill-opacity="1"><g transform="translate(126.912415, 158.794502)"><g><path d="M 8.359375 0.328125 C 4.835938 0.328125 3.078125 -1.625 3.078125 -5.53125 L 3.078125 -13.90625 C 3.078125 -14.34375 3.023438 -14.628906 2.921875 -14.765625 C 2.816406 -14.910156 2.59375 -14.984375 2.25 -14.984375 L 0.875 -14.984375 L 0.875 -17 L 1.484375 -17 C 2.335938 -17 2.960938 -17.265625 3.359375 -17.796875 C 3.753906 -18.335938 3.96875 -19.222656 4 -20.453125 L 4.015625 -21.9375 L 6.703125 -21.9375 L 6.703125 -17 L 11.84375 -17 L 11.84375 -14.984375 L 6.703125 -14.984375 L 6.703125 -5.578125 C 6.703125 -3.503906 7.179688 -2.265625 8.140625 -1.859375 C 8.410156 -1.742188 8.679688 -1.6875 8.953125 -1.6875 C 10.117188 -1.6875 10.882812 -2.65625 11.25 -4.59375 L 13.1875 -4.59375 C 13.082031 -2.300781 12.128906 -0.78125 10.328125 -0.03125 C 9.742188 0.207031 9.085938 0.328125 8.359375 0.328125 Z M 8.359375 0.328125 "/></g></g></g><g fill="#262626" fill-opacity="1"><g transform="translate(140.938411, 158.794502)"><g><path d="M 1.375 -1.84375 C 2.332031 -1.84375 2.929688 -1.941406 3.171875 -2.140625 C 3.421875 -2.335938 3.570312 -2.546875 3.625 -2.765625 C 3.675781 -2.984375 3.703125 -3.265625 3.703125 -3.609375 L 3.703125 -12.84375 C 3.703125 -13.644531 3.628906 -14.164062 3.484375 -14.40625 C 3.347656 -14.65625 2.972656 -14.78125 2.359375 -14.78125 L 1.34375 -14.78125 L 1.34375 -16.625 C 2.40625 -16.625 3.226562 -16.703125 3.8125 -16.859375 C 4.394531 -17.023438 4.8125 -17.144531 5.0625 -17.21875 C 5.320312 -17.289062 5.597656 -17.328125 5.890625 -17.328125 C 6.453125 -17.328125 6.832031 -17.160156 7.03125 -16.828125 C 7.226562 -16.492188 7.328125 -15.945312 7.328125 -15.1875 L 7.328125 -14.84375 C 8.285156 -15.976562 9.375 -16.738281 10.59375 -17.125 C 11.03125 -17.257812 11.46875 -17.328125 11.90625 -17.328125 C 12.738281 -17.328125 13.382812 -17.085938 13.84375 -16.609375 C 14.3125 -16.128906 14.546875 -15.535156 14.546875 -14.828125 C 14.546875 -14.128906 14.320312 -13.554688 13.875 -13.109375 C 13.425781 -12.660156 12.882812 -12.4375 12.25 -12.4375 C 11.625 -12.4375 11.109375 -12.660156 10.703125 -13.109375 C 10.296875 -13.554688 10.113281 -14.113281 10.15625 -14.78125 C 9.695312 -14.71875 9.207031 -14.507812 8.6875 -14.15625 C 8.164062 -13.800781 7.710938 -13.320312 7.328125 -12.71875 L 7.328125 -3.75 C 7.328125 -3.332031 7.363281 -2.992188 7.4375 -2.734375 C 7.507812 -2.484375 7.703125 -2.269531 8.015625 -2.09375 C 8.335938 -1.925781 9.296875 -1.84375 10.890625 -1.84375 L 10.890625 0 L 1.375 0 Z M 1.375 -1.84375 "/></g></g></g><g fill="#262626" fill-opacity="1"><g transform="translate(155.969853, 158.794502)"><g><path d="M 1.515625 -8.578125 C 1.515625 -9.921875 1.722656 -11.160156 2.140625 -12.296875 C 2.554688 -13.429688 3.140625 -14.375 3.890625 -15.125 C 5.359375 -16.59375 7.316406 -17.328125 9.765625 -17.328125 C 12.234375 -17.328125 14.222656 -16.585938 15.734375 -15.109375 C 17.253906 -13.628906 18.015625 -11.53125 18.015625 -8.8125 C 18.015625 -6.09375 17.316406 -3.890625 15.921875 -2.203125 C 14.523438 -0.515625 12.472656 0.328125 9.765625 0.328125 C 7.066406 0.328125 5.015625 -0.488281 3.609375 -2.125 C 2.210938 -3.757812 1.515625 -5.910156 1.515625 -8.578125 Z M 9.765625 -1.671875 C 11.066406 -1.671875 12.117188 -2.265625 12.921875 -3.453125 C 13.734375 -4.640625 14.140625 -6.304688 14.140625 -8.453125 C 14.140625 -11.898438 13.269531 -14.054688 11.53125 -14.921875 C 11 -15.179688 10.410156 -15.3125 9.765625 -15.3125 C 7.703125 -15.3125 6.359375 -14.0625 5.734375 -11.5625 C 5.503906 -10.707031 5.390625 -9.703125 5.390625 -8.546875 C 5.390625 -6.335938 5.796875 -4.640625 6.609375 -3.453125 C 7.421875 -2.265625 8.472656 -1.671875 9.765625 -1.671875 Z M 9.765625 -1.671875 "/></g></g></g><g fill="#262626" fill-opacity="1"><g transform="translate(175.492294, 158.794502)"><g><path d="M 1.171875 -1.84375 C 2.140625 -1.84375 2.804688 -1.972656 3.171875 -2.234375 C 3.535156 -2.503906 3.71875 -2.972656 3.71875 -3.640625 L 3.71875 -21.796875 C 3.71875 -22.597656 3.644531 -23.117188 3.5 -23.359375 C 3.363281 -23.609375 2.984375 -23.734375 2.359375 -23.734375 L 1 -23.734375 L 1 -25.578125 C 2.132812 -25.578125 3.019531 -25.65625 3.65625 -25.8125 C 4.289062 -25.976562 4.742188 -26.097656 5.015625 -26.171875 C 5.296875 -26.242188 5.585938 -26.28125 5.890625 -26.28125 C 6.460938 -26.28125 6.847656 -26.113281 7.046875 -25.78125 C 7.242188 -25.445312 7.34375 -24.898438 7.34375 -24.140625 L 7.34375 -3.640625 C 7.34375 -2.941406 7.488281 -2.46875 7.78125 -2.21875 C 8.082031 -1.96875 8.773438 -1.84375 9.859375 -1.84375 L 9.859375 0 L 1.171875 0 Z M 1.171875 -1.84375 "/></g></g></g><g fill="#262626" fill-opacity="1"><g transform="translate(1096.243158, 121.325496)"><g><path d="M 13.375 -1.84375 C 16.894531 -1.84375 19.117188 -3.460938 20.046875 -6.703125 L 22.453125 -6.703125 C 22.453125 -5.828125 22.21875 -4.96875 21.75 -4.125 C 21.28125 -3.28125 20.625 -2.53125 19.78125 -1.875 C 17.90625 -0.40625 15.488281 0.328125 12.53125 0.328125 C 9.582031 0.328125 7.0625 -0.648438 4.96875 -2.609375 C 2.53125 -4.878906 1.3125 -8.203125 1.3125 -12.578125 C 1.3125 -16.054688 2.25 -18.992188 4.125 -21.390625 C 5.457031 -23.097656 7.226562 -24.285156 9.4375 -24.953125 C 10.570312 -25.304688 11.820312 -25.484375 13.1875 -25.484375 C 15.882812 -25.484375 18.097656 -24.863281 19.828125 -23.625 C 21.554688 -22.394531 22.421875 -20.84375 22.421875 -18.96875 C 22.421875 -17.570312 21.875 -16.632812 20.78125 -16.15625 C 20.457031 -16.007812 20.109375 -15.9375 19.734375 -15.9375 C 18.554688 -15.9375 17.765625 -16.4375 17.359375 -17.4375 C 17.242188 -17.75 17.1875 -18.117188 17.1875 -18.546875 C 17.1875 -18.972656 17.304688 -19.394531 17.546875 -19.8125 C 17.796875 -20.238281 18.117188 -20.5625 18.515625 -20.78125 C 17.617188 -22.507812 16 -23.375 13.65625 -23.375 C 11.320312 -23.375 9.421875 -22.488281 7.953125 -20.71875 C 6.492188 -18.945312 5.765625 -16.285156 5.765625 -12.734375 C 5.765625 -9.191406 6.503906 -6.488281 7.984375 -4.625 C 9.472656 -2.769531 11.269531 -1.84375 13.375 -1.84375 Z M 13.375 -1.84375 "/></g></g></g><g fill="#262626" fill-opacity="1"><g transform="translate(1121.228529, 121.325496)"><g><path d="M 16 -4 C 16 -2.675781 16.265625 -2.015625 16.796875 -2.015625 C 17.296875 -2.015625 17.660156 -2.179688 17.890625 -2.515625 C 18.128906 -2.859375 18.25 -3.476562 18.25 -4.375 L 20.015625 -4.375 C 20.023438 -4.226562 20.03125 -4 20.03125 -3.6875 C 20.03125 -2.675781 19.78125 -1.804688 19.28125 -1.078125 C 18.664062 -0.140625 17.6875 0.328125 16.34375 0.328125 C 15.46875 0.328125 14.722656 0.0820312 14.109375 -0.40625 C 13.492188 -0.894531 13.070312 -1.539062 12.84375 -2.34375 C 11.21875 -0.5625 9.164062 0.328125 6.6875 0.328125 C 5.320312 0.328125 4.132812 -0.0664062 3.125 -0.859375 C 2.113281 -1.660156 1.609375 -2.773438 1.609375 -4.203125 C 1.609375 -6.679688 3.441406 -8.515625 7.109375 -9.703125 C 9.429688 -10.441406 10.820312 -10.953125 11.28125 -11.234375 C 11.738281 -11.523438 12.035156 -11.816406 12.171875 -12.109375 C 12.316406 -12.398438 12.390625 -12.734375 12.390625 -13.109375 C 12.390625 -13.765625 12.0625 -14.3125 11.40625 -14.75 C 10.757812 -15.195312 9.914062 -15.421875 8.875 -15.421875 C 7.84375 -15.421875 6.929688 -15.140625 6.140625 -14.578125 C 6.691406 -14.171875 6.96875 -13.640625 6.96875 -12.984375 C 6.96875 -12.335938 6.753906 -11.816406 6.328125 -11.421875 C 5.898438 -11.035156 5.378906 -10.84375 4.765625 -10.84375 C 4.160156 -10.84375 3.660156 -11.023438 3.265625 -11.390625 C 2.867188 -11.765625 2.671875 -12.28125 2.671875 -12.9375 C 2.671875 -14.25 3.328125 -15.304688 4.640625 -16.109375 C 5.960938 -16.921875 7.566406 -17.328125 9.453125 -17.328125 C 12.828125 -17.328125 14.890625 -16.234375 15.640625 -14.046875 C 15.878906 -13.316406 16 -12.476562 16 -11.53125 Z M 8.609375 -8.1875 C 7.628906 -7.757812 6.894531 -7.210938 6.40625 -6.546875 C 5.914062 -5.878906 5.671875 -5.15625 5.671875 -4.375 C 5.671875 -3.59375 5.878906 -3 6.296875 -2.59375 C 6.722656 -2.195312 7.253906 -2 7.890625 -2 C 9.191406 -2 10.265625 -2.453125 11.109375 -3.359375 C 11.960938 -4.273438 12.390625 -5.546875 12.390625 -7.171875 L 12.390625 -9.75 C 11.671875 -9.382812 10.910156 -9.050781 10.109375 -8.75 C 9.316406 -8.445312 8.816406 -8.257812 8.609375 -8.1875 Z M 8.609375 -8.1875 "/></g></g></g><g fill="#262626" fill-opacity="1"><g transform="translate(1140.868266, 121.325496)"><g><path d="M 23.5625 -17.3125 C 26.851562 -17.3125 28.5 -14.914062 28.5 -10.125 L 28.5 -3.640625 C 28.5 -2.898438 28.601562 -2.414062 28.8125 -2.1875 C 29.019531 -1.957031 29.601562 -1.84375 30.5625 -1.84375 L 30.5625 0 L 22.625 0 L 22.625 -1.84375 C 23.644531 -1.84375 24.257812 -1.945312 24.46875 -2.15625 C 24.675781 -2.363281 24.796875 -2.578125 24.828125 -2.796875 C 24.859375 -3.023438 24.875 -3.304688 24.875 -3.640625 L 24.875 -9.90625 C 24.875 -11.46875 24.75 -12.535156 24.5 -13.109375 C 24.257812 -13.691406 23.941406 -14.117188 23.546875 -14.390625 C 23.160156 -14.671875 22.71875 -14.8125 22.21875 -14.8125 C 21.332031 -14.8125 20.476562 -14.632812 19.65625 -14.28125 C 18.84375 -13.925781 18.195312 -13.457031 17.71875 -12.875 C 17.875 -12.0625 17.953125 -11.144531 17.953125 -10.125 L 17.953125 -3.640625 C 17.953125 -2.898438 18.054688 -2.414062 18.265625 -2.1875 C 18.484375 -1.957031 19.066406 -1.84375 20.015625 -1.84375 L 20.015625 0 L 12.078125 0 L 12.078125 -1.84375 C 13.097656 -1.84375 13.710938 -1.945312 13.921875 -2.15625 C 14.128906 -2.363281 14.25 -2.578125 14.28125 -2.796875 C 14.3125 -3.023438 14.328125 -3.304688 14.328125 -3.640625 L 14.328125 -9.90625 C 14.328125 -11.46875 14.203125 -12.535156 13.953125 -13.109375 C 13.710938 -13.691406 13.394531 -14.117188 13 -14.390625 C 12.613281 -14.671875 12.175781 -14.8125 11.6875 -14.8125 C 10.832031 -14.8125 10.015625 -14.648438 9.234375 -14.328125 C 8.453125 -14.003906 7.8125 -13.578125 7.3125 -13.046875 L 7.3125 -3.609375 C 7.3125 -2.898438 7.421875 -2.457031 7.640625 -2.28125 C 8.046875 -1.988281 8.78125 -1.84375 9.84375 -1.84375 L 9.84375 0 L 1.34375 0 L 1.34375 -1.84375 C 2.300781 -1.84375 2.898438 -1.941406 3.140625 -2.140625 C 3.390625 -2.335938 3.539062 -2.546875 3.59375 -2.765625 C 3.65625 -2.984375 3.6875 -3.265625 3.6875 -3.609375 L 3.6875 -12.734375 C 3.6875 -13.546875 3.613281 -14.070312 3.46875 -14.3125 C 3.332031 -14.5625 2.953125 -14.6875 2.328125 -14.6875 L 1.3125 -14.6875 L 1.3125 -16.53125 C 2.363281 -16.53125 3.191406 -16.609375 3.796875 -16.765625 C 4.398438 -16.929688 4.832031 -17.050781 5.09375 -17.125 C 5.351562 -17.195312 5.632812 -17.234375 5.9375 -17.234375 C 6.5 -17.234375 6.867188 -17.0625 7.046875 -16.71875 C 7.222656 -16.382812 7.3125 -15.835938 7.3125 -15.078125 L 7.3125 -15.046875 C 8.445312 -16.046875 9.832031 -16.738281 11.46875 -17.125 C 12 -17.25 12.519531 -17.3125 13.03125 -17.3125 C 15.03125 -17.3125 16.421875 -16.421875 17.203125 -14.640625 C 18.453125 -15.796875 19.957031 -16.601562 21.71875 -17.0625 C 22.34375 -17.226562 22.957031 -17.3125 23.5625 -17.3125 Z M 23.5625 -17.3125 "/></g></g></g><g fill="#262626" fill-opacity="1"><g transform="translate(1172.389043, 121.325496)"><g><path d="M 17.140625 -7.734375 L 5.515625 -7.734375 C 5.515625 -5.804688 5.96875 -4.316406 6.875 -3.265625 C 7.789062 -2.210938 8.921875 -1.6875 10.265625 -1.6875 C 12.054688 -1.6875 13.34375 -2.429688 14.125 -3.921875 L 16.625 -3.9375 C 16.363281 -2.738281 15.628906 -1.726562 14.421875 -0.90625 C 13.210938 -0.0820312 11.578125 0.328125 9.515625 0.328125 C 7.460938 0.328125 5.6875 -0.304688 4.1875 -1.578125 C 2.40625 -3.109375 1.515625 -5.265625 1.515625 -8.046875 C 1.515625 -10.828125 2.222656 -13.066406 3.640625 -14.765625 C 5.066406 -16.472656 7.109375 -17.328125 9.765625 -17.328125 C 13.265625 -17.328125 15.53125 -15.921875 16.5625 -13.109375 C 16.976562 -11.984375 17.1875 -10.914062 17.1875 -9.90625 C 17.1875 -8.894531 17.171875 -8.171875 17.140625 -7.734375 Z M 13.28125 -10.234375 C 13.28125 -13.660156 12.113281 -15.375 9.78125 -15.375 C 8.476562 -15.375 7.457031 -14.863281 6.71875 -13.84375 C 5.988281 -12.820312 5.59375 -11.414062 5.53125 -9.625 L 13.265625 -9.625 C 13.273438 -9.832031 13.28125 -10.035156 13.28125 -10.234375 Z M 13.28125 -10.234375 "/></g></g></g><g fill="#262626" fill-opacity="1"><g transform="translate(1191.090363, 121.325496)"><g><path d="M 1.375 -1.84375 C 2.332031 -1.84375 2.929688 -1.941406 3.171875 -2.140625 C 3.421875 -2.335938 3.570312 -2.546875 3.625 -2.765625 C 3.675781 -2.984375 3.703125 -3.265625 3.703125 -3.609375 L 3.703125 -12.84375 C 3.703125 -13.644531 3.628906 -14.164062 3.484375 -14.40625 C 3.347656 -14.65625 2.972656 -14.78125 2.359375 -14.78125 L 1.34375 -14.78125 L 1.34375 -16.625 C 2.40625 -16.625 3.226562 -16.703125 3.8125 -16.859375 C 4.394531 -17.023438 4.8125 -17.144531 5.0625 -17.21875 C 5.320312 -17.289062 5.597656 -17.328125 5.890625 -17.328125 C 6.453125 -17.328125 6.832031 -17.160156 7.03125 -16.828125 C 7.226562 -16.492188 7.328125 -15.945312 7.328125 -15.1875 L 7.328125 -14.84375 C 8.285156 -15.976562 9.375 -16.738281 10.59375 -17.125 C 11.03125 -17.257812 11.46875 -17.328125 11.90625 -17.328125 C 12.738281 -17.328125 13.382812 -17.085938 13.84375 -16.609375 C 14.3125 -16.128906 14.546875 -15.535156 14.546875 -14.828125 C 14.546875 -14.128906 14.320312 -13.554688 13.875 -13.109375 C 13.425781 -12.660156 12.882812 -12.4375 12.25 -12.4375 C 11.625 -12.4375 11.109375 -12.660156 10.703125 -13.109375 C 10.296875 -13.554688 10.113281 -14.113281 10.15625 -14.78125 C 9.695312 -14.71875 9.207031 -14.507812 8.6875 -14.15625 C 8.164062 -13.800781 7.710938 -13.320312 7.328125 -12.71875 L 7.328125 -3.75 C 7.328125 -3.332031 7.363281 -2.992188 7.4375 -2.734375 C 7.507812 -2.484375 7.703125 -2.269531 8.015625 -2.09375 C 8.335938 -1.925781 9.296875 -1.84375 10.890625 -1.84375 L 10.890625 0 L 1.375 0 Z M 1.375 -1.84375 "/></g></g></g><g fill="#262626" fill-opacity="1"><g transform="translate(1206.121805, 121.325496)"><g><path d="M 16 -4 C 16 -2.675781 16.265625 -2.015625 16.796875 -2.015625 C 17.296875 -2.015625 17.660156 -2.179688 17.890625 -2.515625 C 18.128906 -2.859375 18.25 -3.476562 18.25 -4.375 L 20.015625 -4.375 C 20.023438 -4.226562 20.03125 -4 20.03125 -3.6875 C 20.03125 -2.675781 19.78125 -1.804688 19.28125 -1.078125 C 18.664062 -0.140625 17.6875 0.328125 16.34375 0.328125 C 15.46875 0.328125 14.722656 0.0820312 14.109375 -0.40625 C 13.492188 -0.894531 13.070312 -1.539062 12.84375 -2.34375 C 11.21875 -0.5625 9.164062 0.328125 6.6875 0.328125 C 5.320312 0.328125 4.132812 -0.0664062 3.125 -0.859375 C 2.113281 -1.660156 1.609375 -2.773438 1.609375 -4.203125 C 1.609375 -6.679688 3.441406 -8.515625 7.109375 -9.703125 C 9.429688 -10.441406 10.820312 -10.953125 11.28125 -11.234375 C 11.738281 -11.523438 12.035156 -11.816406 12.171875 -12.109375 C 12.316406 -12.398438 12.390625 -12.734375 12.390625 -13.109375 C 12.390625 -13.765625 12.0625 -14.3125 11.40625 -14.75 C 10.757812 -15.195312 9.914062 -15.421875 8.875 -15.421875 C 7.84375 -15.421875 6.929688 -15.140625 6.140625 -14.578125 C 6.691406 -14.171875 6.96875 -13.640625 6.96875 -12.984375 C 6.96875 -12.335938 6.753906 -11.816406 6.328125 -11.421875 C 5.898438 -11.035156 5.378906 -10.84375 4.765625 -10.84375 C 4.160156 -10.84375 3.660156 -11.023438 3.265625 -11.390625 C 2.867188 -11.765625 2.671875 -12.28125 2.671875 -12.9375 C 2.671875 -14.25 3.328125 -15.304688 4.640625 -16.109375 C 5.960938 -16.921875 7.566406 -17.328125 9.453125 -17.328125 C 12.828125 -17.328125 14.890625 -16.234375 15.640625 -14.046875 C 15.878906 -13.316406 16 -12.476562 16 -11.53125 Z M 8.609375 -8.1875 C 7.628906 -7.757812 6.894531 -7.210938 6.40625 -6.546875 C 5.914062 -5.878906 5.671875 -5.15625 5.671875 -4.375 C 5.671875 -3.59375 5.878906 -3 6.296875 -2.59375 C 6.722656 -2.195312 7.253906 -2 7.890625 -2 C 9.191406 -2 10.265625 -2.453125 11.109375 -3.359375 C 11.960938 -4.273438 12.390625 -5.546875 12.390625 -7.171875 L 12.390625 -9.75 C 11.671875 -9.382812 10.910156 -9.050781 10.109375 -8.75 C 9.316406 -8.445312 8.816406 -8.257812 8.609375 -8.1875 Z M 8.609375 -8.1875 "/></g></g></g><g fill="#262626" fill-opacity="1"><g transform="translate(1098.198572, 158.794502)"><g><path d="M 13.375 -1.84375 C 16.894531 -1.84375 19.117188 -3.460938 20.046875 -6.703125 L 22.453125 -6.703125 C 22.453125 -5.828125 22.21875 -4.96875 21.75 -4.125 C 21.28125 -3.28125 20.625 -2.53125 19.78125 -1.875 C 17.90625 -0.40625 15.488281 0.328125 12.53125 0.328125 C 9.582031 0.328125 7.0625 -0.648438 4.96875 -2.609375 C 2.53125 -4.878906 1.3125 -8.203125 1.3125 -12.578125 C 1.3125 -16.054688 2.25 -18.992188 4.125 -21.390625 C 5.457031 -23.097656 7.226562 -24.285156 9.4375 -24.953125 C 10.570312 -25.304688 11.820312 -25.484375 13.1875 -25.484375 C 15.882812 -25.484375 18.097656 -24.863281 19.828125 -23.625 C 21.554688 -22.394531 22.421875 -20.84375 22.421875 -18.96875 C 22.421875 -17.570312 21.875 -16.632812 20.78125 -16.15625 C 20.457031 -16.007812 20.109375 -15.9375 19.734375 -15.9375 C 18.554688 -15.9375 17.765625 -16.4375 17.359375 -17.4375 C 17.242188 -17.75 17.1875 -18.117188 17.1875 -18.546875 C 17.1875 -18.972656 17.304688 -19.394531 17.546875 -19.8125 C 17.796875 -20.238281 18.117188 -20.5625 18.515625 -20.78125 C 17.617188 -22.507812 16 -23.375 13.65625 -23.375 C 11.320312 -23.375 9.421875 -22.488281 7.953125 -20.71875 C 6.492188 -18.945312 5.765625 -16.285156 5.765625 -12.734375 C 5.765625 -9.191406 6.503906 -6.488281 7.984375 -4.625 C 9.472656 -2.769531 11.269531 -1.84375 13.375 -1.84375 Z M 13.375 -1.84375 "/></g></g></g><g fill="#262626" fill-opacity="1"><g transform="translate(1123.183943, 158.794502)"><g><path d="M 1.515625 -8.578125 C 1.515625 -9.921875 1.722656 -11.160156 2.140625 -12.296875 C 2.554688 -13.429688 3.140625 -14.375 3.890625 -15.125 C 5.359375 -16.59375 7.316406 -17.328125 9.765625 -17.328125 C 12.234375 -17.328125 14.222656 -16.585938 15.734375 -15.109375 C 17.253906 -13.628906 18.015625 -11.53125 18.015625 -8.8125 C 18.015625 -6.09375 17.316406 -3.890625 15.921875 -2.203125 C 14.523438 -0.515625 12.472656 0.328125 9.765625 0.328125 C 7.066406 0.328125 5.015625 -0.488281 3.609375 -2.125 C 2.210938 -3.757812 1.515625 -5.910156 1.515625 -8.578125 Z M 9.765625 -1.671875 C 11.066406 -1.671875 12.117188 -2.265625 12.921875 -3.453125 C 13.734375 -4.640625 14.140625 -6.304688 14.140625 -8.453125 C 14.140625 -11.898438 13.269531 -14.054688 11.53125 -14.921875 C 11 -15.179688 10.410156 -15.3125 9.765625 -15.3125 C 7.703125 -15.3125 6.359375 -14.0625 5.734375 -11.5625 C 5.503906 -10.707031 5.390625 -9.703125 5.390625 -8.546875 C 5.390625 -6.335938 5.796875 -4.640625 6.609375 -3.453125 C 7.421875 -2.265625 8.472656 -1.671875 9.765625 -1.671875 Z M 9.765625 -1.671875 "/></g></g></g><g fill="#262626" fill-opacity="1"><g transform="translate(1142.706383, 158.794502)"><g><path d="M 11.765625 -14.8125 C 9.929688 -14.8125 8.445312 -14.242188 7.3125 -13.109375 L 7.3125 -3.609375 C 7.3125 -2.910156 7.421875 -2.472656 7.640625 -2.296875 C 8.035156 -1.992188 8.773438 -1.84375 9.859375 -1.84375 L 9.859375 0 L 1.34375 0 L 1.34375 -1.84375 C 2.300781 -1.84375 2.898438 -1.941406 3.140625 -2.140625 C 3.390625 -2.335938 3.539062 -2.546875 3.59375 -2.765625 C 3.65625 -2.984375 3.6875 -3.265625 3.6875 -3.609375 L 3.6875 -12.734375 C 3.6875 -13.546875 3.613281 -14.070312 3.46875 -14.3125 C 3.332031 -14.5625 2.953125 -14.6875 2.328125 -14.6875 L 1.3125 -14.6875 L 1.3125 -16.53125 C 2.363281 -16.53125 3.1875 -16.609375 3.78125 -16.765625 C 4.375 -16.929688 4.796875 -17.050781 5.046875 -17.125 C 5.304688 -17.195312 5.578125 -17.234375 5.859375 -17.234375 C 6.453125 -17.234375 6.84375 -17.0625 7.03125 -16.71875 C 7.21875 -16.375 7.3125 -15.828125 7.3125 -15.078125 C 8.507812 -16.085938 9.894531 -16.769531 11.46875 -17.125 C 11.988281 -17.25 12.5 -17.3125 13 -17.3125 C 16.625 -17.3125 18.4375 -14.914062 18.4375 -10.125 L 18.4375 -3.640625 C 18.4375 -2.898438 18.539062 -2.414062 18.75 -2.1875 C 18.96875 -1.957031 19.550781 -1.84375 20.5 -1.84375 L 20.5 0 L 12.578125 0 L 12.578125 -1.84375 C 13.585938 -1.84375 14.195312 -1.945312 14.40625 -2.15625 C 14.613281 -2.363281 14.734375 -2.578125 14.765625 -2.796875 C 14.796875 -3.023438 14.8125 -3.304688 14.8125 -3.640625 L 14.8125 -9.90625 C 14.8125 -11.457031 14.664062 -12.523438 14.375 -13.109375 C 13.8125 -14.242188 12.941406 -14.8125 11.765625 -14.8125 Z M 11.765625 -14.8125 "/></g></g></g><g fill="#262626" fill-opacity="1"><g transform="translate(1164.172688, 158.794502)"><g><path d="M 8.359375 0.328125 C 4.835938 0.328125 3.078125 -1.625 3.078125 -5.53125 L 3.078125 -13.90625 C 3.078125 -14.34375 3.023438 -14.628906 2.921875 -14.765625 C 2.816406 -14.910156 2.59375 -14.984375 2.25 -14.984375 L 0.875 -14.984375 L 0.875 -17 L 1.484375 -17 C 2.335938 -17 2.960938 -17.265625 3.359375 -17.796875 C 3.753906 -18.335938 3.96875 -19.222656 4 -20.453125 L 4.015625 -21.9375 L 6.703125 -21.9375 L 6.703125 -17 L 11.84375 -17 L 11.84375 -14.984375 L 6.703125 -14.984375 L 6.703125 -5.578125 C 6.703125 -3.503906 7.179688 -2.265625 8.140625 -1.859375 C 8.410156 -1.742188 8.679688 -1.6875 8.953125 -1.6875 C 10.117188 -1.6875 10.882812 -2.65625 11.25 -4.59375 L 13.1875 -4.59375 C 13.082031 -2.300781 12.128906 -0.78125 10.328125 -0.03125 C 9.742188 0.207031 9.085938 0.328125 8.359375 0.328125 Z M 8.359375 0.328125 "/></g></g></g><g fill="#262626" fill-opacity="1"><g transform="translate(1178.198684, 158.794502)"><g><path d="M 1.375 -1.84375 C 2.332031 -1.84375 2.929688 -1.941406 3.171875 -2.140625 C 3.421875 -2.335938 3.570312 -2.546875 3.625 -2.765625 C 3.675781 -2.984375 3.703125 -3.265625 3.703125 -3.609375 L 3.703125 -12.84375 C 3.703125 -13.644531 3.628906 -14.164062 3.484375 -14.40625 C 3.347656 -14.65625 2.972656 -14.78125 2.359375 -14.78125 L 1.34375 -14.78125 L 1.34375 -16.625 C 2.40625 -16.625 3.226562 -16.703125 3.8125 -16.859375 C 4.394531 -17.023438 4.8125 -17.144531 5.0625 -17.21875 C 5.320312 -17.289062 5.597656 -17.328125 5.890625 -17.328125 C 6.453125 -17.328125 6.832031 -17.160156 7.03125 -16.828125 C 7.226562 -16.492188 7.328125 -15.945312 7.328125 -15.1875 L 7.328125 -14.84375 C 8.285156 -15.976562 9.375 -16.738281 10.59375 -17.125 C 11.03125 -17.257812 11.46875 -17.328125 11.90625 -17.328125 C 12.738281 -17.328125 13.382812 -17.085938 13.84375 -16.609375 C 14.3125 -16.128906 14.546875 -15.535156 14.546875 -14.828125 C 14.546875 -14.128906 14.320312 -13.554688 13.875 -13.109375 C 13.425781 -12.660156 12.882812 -12.4375 12.25 -12.4375 C 11.625 -12.4375 11.109375 -12.660156 10.703125 -13.109375 C 10.296875 -13.554688 10.113281 -14.113281 10.15625 -14.78125 C 9.695312 -14.71875 9.207031 -14.507812 8.6875 -14.15625 C 8.164062 -13.800781 7.710938 -13.320312 7.328125 -12.71875 L 7.328125 -3.75 C 7.328125 -3.332031 7.363281 -2.992188 7.4375 -2.734375 C 7.507812 -2.484375 7.703125 -2.269531 8.015625 -2.09375 C 8.335938 -1.925781 9.296875 -1.84375 10.890625 -1.84375 L 10.890625 0 L 1.375 0 Z M 1.375 -1.84375 "/></g></g></g><g fill="#262626" fill-opacity="1"><g transform="translate(1193.230126, 158.794502)"><g><path d="M 1.515625 -8.578125 C 1.515625 -9.921875 1.722656 -11.160156 2.140625 -12.296875 C 2.554688 -13.429688 3.140625 -14.375 3.890625 -15.125 C 5.359375 -16.59375 7.316406 -17.328125 9.765625 -17.328125 C 12.234375 -17.328125 14.222656 -16.585938 15.734375 -15.109375 C 17.253906 -13.628906 18.015625 -11.53125 18.015625 -8.8125 C 18.015625 -6.09375 17.316406 -3.890625 15.921875 -2.203125 C 14.523438 -0.515625 12.472656 0.328125 9.765625 0.328125 C 7.066406 0.328125 5.015625 -0.488281 3.609375 -2.125 C 2.210938 -3.757812 1.515625 -5.910156 1.515625 -8.578125 Z M 9.765625 -1.671875 C 11.066406 -1.671875 12.117188 -2.265625 12.921875 -3.453125 C 13.734375 -4.640625 14.140625 -6.304688 14.140625 -8.453125 C 14.140625 -11.898438 13.269531 -14.054688 11.53125 -14.921875 C 11 -15.179688 10.410156 -15.3125 9.765625 -15.3125 C 7.703125 -15.3125 6.359375 -14.0625 5.734375 -11.5625 C 5.503906 -10.707031 5.390625 -9.703125 5.390625 -8.546875 C 5.390625 -6.335938 5.796875 -4.640625 6.609375 -3.453125 C 7.421875 -2.265625 8.472656 -1.671875 9.765625 -1.671875 Z M 9.765625 -1.671875 "/></g></g></g><g fill="#262626" fill-opacity="1"><g transform="translate(1212.752567, 158.794502)"><g><path d="M 1.171875 -1.84375 C 2.140625 -1.84375 2.804688 -1.972656 3.171875 -2.234375 C 3.535156 -2.503906 3.71875 -2.972656 3.71875 -3.640625 L 3.71875 -21.796875 C 3.71875 -22.597656 3.644531 -23.117188 3.5 -23.359375 C 3.363281 -23.609375 2.984375 -23.734375 2.359375 -23.734375 L 1 -23.734375 L 1 -25.578125 C 2.132812 -25.578125 3.019531 -25.65625 3.65625 -25.8125 C 4.289062 -25.976562 4.742188 -26.097656 5.015625 -26.171875 C 5.296875 -26.242188 5.585938 -26.28125 5.890625 -26.28125 C 6.460938 -26.28125 6.847656 -26.113281 7.046875 -25.78125 C 7.242188 -25.445312 7.34375 -24.898438 7.34375 -24.140625 L 7.34375 -3.640625 C 7.34375 -2.941406 7.488281 -2.46875 7.78125 -2.21875 C 8.082031 -1.96875 8.773438 -1.84375 9.859375 -1.84375 L 9.859375 0 L 1.171875 0 Z M 1.171875 -1.84375 "/></g></g></g></svg>